<?xml version="1.0" standalone="no"?>
<!DOCTYPE svg PUBLIC "-//W3C//DTD SVG 20010904//EN"
 "http://www.w3.org/TR/2001/REC-SVG-20010904/DTD/svg10.dtd">
<svg version="1.0" xmlns="http://www.w3.org/2000/svg"
 width="512.000000pt" height="512.000000pt" viewBox="0 0 512.000000 512.000000"
 preserveAspectRatio="xMidYMid meet">
<metadata>
Created by potrace 1.16, written by Peter Selinger 2001-2019
</metadata>
<g transform="translate(0.000000,512.000000) scale(0.100000,-0.100000)"
fill="#092b00" stroke="none">
<path d="M2472 5113 c-7 -3 -19 -18 -28 -34 -14 -29 -10 -55 95 -548 61 -285
111 -523 111 -529 0 -8 -76 -12 -244 -14 -243 -3 -245 -3 -270 -27 l-26 -24 0
-199 0 -199 26 -24 c25 -23 35 -25 125 -25 l99 0 1 -72 c0 -40 10 -287 23
-548 13 -261 22 -476 21 -477 -1 -2 -17 2 -36 7 -103 31 -222 40 -499 40 -308
0 -394 -9 -555 -55 -354 -103 -655 -348 -830 -677 -79 -150 -135 -320 -150
-463 -11 -109 -11 -108 -67 -134 -71 -33 -141 -107 -168 -178 -30 -80 -25
-196 12 -268 39 -74 110 -136 188 -164 21 -7 28 -19 38 -69 40 -192 209 -365
409 -417 50 -13 309 -15 1988 -15 2115 0 1966 -4 1979 58 3 15 40 770 81 1677
42 908 78 1674 81 1703 l5 52 55 0 c45 0 59 4 79 25 25 24 25 25 25 222 -1
213 -3 223 -54 243 -18 7 -379 10 -1092 10 -585 0 -1064 3 -1064 7 0 15 -221
1040 -230 1067 -6 16 -18 35 -27 42 -18 13 -76 17 -101 7z m2398 -1378 l0 -75
-1295 0 -1295 0 0 75 0 75 1295 0 1295 0 0 -75z m-170 -294 c0 -54 -135 -2992
-146 -3163 l-6 -108 -645 0 -644 0 35 43 c42 51 90 151 109 225 13 51 15 54
73 81 179 84 240 310 128 476 l-33 50 97 13 c340 45 601 267 694 588 30 104
33 332 5 434 -79 287 -319 518 -607 585 -118 28 -292 24 -403 -9 -219 -65
-394 -202 -498 -391 -18 -33 -34 -62 -35 -64 -2 -2 -31 14 -66 35 -35 21 -89
51 -120 66 -56 26 -58 29 -58 65 0 21 -11 270 -25 553 -14 283 -25 527 -25
543 l0 27 1085 0 1085 0 0 -49z m-988 -942 c29 -6 95 -31 146 -55 209 -100
346 -306 359 -538 17 -309 -185 -583 -489 -662 -70 -18 -227 -21 -285 -5 -39
11 -39 11 -51 83 -42 243 -178 506 -359 690 -66 68 -66 68 -52 100 74 183 232
321 434 379 70 20 218 24 297 8z m-1502 -243 c509 -77 921 -477 1015 -985 8
-46 15 -94 15 -107 l0 -24 -1370 0 -1370 0 0 29 c0 16 7 64 15 107 96 503 496
894 1002 979 112 19 570 19 693 1z m1187 -1302 c56 -27 88 -78 88 -140 0 -85
-62 -147 -158 -159 -29 -3 -704 -5 -1502 -3 -1396 3 -1451 4 -1488 22 -44 22
-87 88 -87 134 0 63 38 123 95 148 25 11 301 13 1523 14 1365 0 1497 -1 1529
-16z m-167 -486 c0 -7 -11 -37 -25 -65 -29 -63 -103 -145 -161 -179 -96 -57
-52 -55 -1196 -52 l-1053 3 -69 34 c-38 19 -89 53 -112 77 -42 41 -104 148
-104 179 0 13 147 15 1360 15 1081 0 1360 -3 1360 -12z"/>
<path d="M1950 1950 l0 -90 85 0 85 0 0 90 0 90 -85 0 -85 0 0 -90z"/>
<path d="M1050 1870 l0 -90 85 0 85 0 0 90 0 90 -85 0 -85 0 0 -90z"/>
<path d="M970 1545 l0 -85 85 0 85 0 0 85 0 85 -85 0 -85 0 0 -85z"/>
<path d="M2430 1545 l0 -85 90 0 90 0 0 85 0 85 -90 0 -90 0 0 -85z"/>
<path d="M1700 1465 l0 -85 85 0 85 0 0 85 0 85 -85 0 -85 0 0 -85z"/>
</g>
</svg>
