<?xml version="1.0" standalone="no"?>
<!DOCTYPE svg PUBLIC "-//W3C//DTD SVG 20010904//EN"
 "http://www.w3.org/TR/2001/REC-SVG-20010904/DTD/svg10.dtd">
<svg version="1.0" xmlns="http://www.w3.org/2000/svg"
 width="512.000000pt" height="512.000000pt" viewBox="0 0 512.000000 512.000000"
 preserveAspectRatio="xMidYMid meet">
<metadata>
Created by potrace 1.16, written by Peter Selinger 2001-2019
</metadata>
<g transform="translate(0.000000,512.000000) scale(0.100000,-0.100000)"
fill="#614700" stroke="none">
<path d="M1255 5102 c-28 -10 -71 -30 -97 -45 -155 -90 -280 -358 -295 -629
l-6 -108 -316 0 c-310 0 -317 -1 -366 -24 -73 -34 -110 -69 -144 -138 l-31
-61 0 -462 0 -462 26 -27 c24 -23 34 -26 100 -26 l74 0 0 -1448 0 -1449 31
-61 c34 -69 71 -105 145 -139 l51 -23 2119 2 2119 3 57 27 c70 33 150 106 178
162 20 42 20 53 20 1484 l0 1442 74 0 c66 0 76 3 100 26 l26 27 0 461 0 461
-24 50 c-34 73 -69 110 -138 144 l-61 31 -196 0 -197 0 -11 118 c-32 322 -153
552 -341 644 -65 32 -70 33 -197 33 l-131 0 -75 -37 c-45 -23 -174 -115 -334
-239 -143 -111 -274 -212 -292 -226 l-32 -25 -28 20 c-186 131 -514 152 -725
47 -29 -15 -61 -34 -70 -42 -15 -13 -43 6 -300 204 -305 237 -345 263 -427
287 -74 22 -221 21 -286 -2z m267 -218 c18 -9 158 -114 311 -232 216 -167 277
-218 271 -231 -4 -9 -14 -35 -22 -58 l-14 -43 -178 0 -177 0 -27 -26 c-21 -21
-26 -36 -26 -74 0 -38 5 -53 26 -74 l27 -26 178 0 c99 0 179 -2 179 -4 0 -2 3
-11 6 -19 4 -11 -69 -58 -269 -176 -152 -89 -292 -168 -313 -177 -48 -20 -149
-20 -196 -1 -81 34 -159 153 -199 304 -30 112 -37 345 -14 468 32 170 101 305
183 360 68 45 176 49 254 9z m2536 7 c84 -43 157 -154 195 -296 92 -344 -7
-774 -195 -850 -60 -24 -145 -22 -204 5 -86 37 -604 345 -604 358 0 9 42 12
179 12 l178 0 27 26 c21 21 26 36 26 74 0 38 -5 53 -26 74 l-27 26 -178 0
-178 0 -9 33 c-6 17 -13 39 -17 48 -5 13 59 67 281 239 158 122 308 233 333
246 60 31 164 33 219 5z m-1234 -401 c299 -93 298 -447 -2 -540 -141 -44 -338
-20 -434 53 -193 146 -136 410 105 486 87 28 242 28 331 1z m-1932 -483 c70
-290 225 -462 438 -486 140 -15 246 14 412 115 33 20 60 35 62 33 2 -2 -55
-82 -126 -176 l-129 -173 -675 0 -675 0 3 363 c3 404 4 407 71 426 17 5 158
10 312 10 l280 1 27 -113z m3980 91 c16 -11 31 -34 37 -55 7 -23 11 -173 11
-381 l0 -342 -572 2 -571 3 -133 183 c-74 100 -131 182 -128 182 3 0 56 -30
118 -66 142 -81 214 -105 323 -106 201 0 340 94 438 295 42 87 85 225 85 272
0 12 3 25 7 29 5 4 87 6 183 4 147 -2 180 -6 202 -20z m-1376 -749 c208 -287
382 -527 386 -534 5 -9 -37 -1 -120 21 -148 39 -180 41 -216 13 -26 -21 -39
-54 -89 -244 l-24 -90 -128 255 c-70 140 -208 413 -306 607 l-180 351 58 17
c68 20 184 78 209 106 9 10 20 19 24 19 3 0 177 -235 386 -521z m-1243 487
c46 -34 124 -72 190 -91 l58 -17 -205 -401 c-112 -221 -250 -494 -306 -607
l-103 -205 -24 90 c-50 190 -63 223 -89 244 -36 28 -68 26 -216 -13 l-127 -34
57 77 c291 395 727 981 730 981 2 0 18 -11 35 -24z m510 -461 l97 -195 0
-1490 0 -1490 -200 0 -200 0 0 1490 0 1490 97 195 c54 107 100 195 103 195 3
0 49 -88 103 -195z m-1385 -287 c-14 -18 -91 -122 -172 -231 -131 -178 -146
-203 -146 -238 0 -31 7 -47 29 -70 42 -41 78 -38 331 30 l215 58 48 -181 c74
-275 78 -288 103 -313 28 -28 97 -32 132 -7 13 9 75 120 147 262 68 136 140
276 159 312 l36 65 0 -1288 0 -1287 -893 2 c-1001 3 -935 -2 -956 75 -7 26
-11 497 -11 1441 l0 1402 501 0 501 0 -24 -32z m3342 -1377 l0 -1408 -21 -27
c-11 -15 -40 -37 -62 -49 l-42 -22 -767 -3 -768 -3 0 1288 0 1288 36 -65 c19
-36 91 -176 159 -312 72 -142 134 -253 147 -262 35 -25 104 -21 132 7 25 25
29 38 103 313 l48 181 215 -58 c253 -68 289 -71 331 -30 22 23 29 39 29 69 0
35 -17 64 -158 258 -87 121 -161 225 -166 232 -6 9 75 12 388 12 l396 0 0
-1409z"/>
<path d="M626 1634 c-21 -21 -26 -36 -26 -74 0 -66 34 -100 100 -100 38 0 53
5 74 26 37 38 37 110 0 148 -21 21 -36 26 -74 26 -38 0 -53 -5 -74 -26z"/>
<path d="M626 1234 l-26 -27 0 -377 0 -377 26 -27 c38 -37 110 -37 148 0 l26
27 0 377 0 377 -26 27 c-21 21 -36 26 -74 26 -38 0 -53 -5 -74 -26z"/>
</g>
</svg>
