<?xml version="1.0" standalone="no"?>
<!DOCTYPE svg PUBLIC "-//W3C//DTD SVG 20010904//EN"
 "http://www.w3.org/TR/2001/REC-SVG-20010904/DTD/svg10.dtd">
<svg version="1.0" xmlns="http://www.w3.org/2000/svg"
 width="512.000000pt" height="512.000000pt" viewBox="0 0 512.000000 512.000000"
 preserveAspectRatio="xMidYMid meet">
<metadata>
Created by potrace 1.16, written by Peter Selinger 2001-2019
</metadata>
<g transform="translate(0.000000,512.000000) scale(0.100000,-0.100000)"
fill="#120338" stroke="none">
<path d="M4040 5064 c-185 -39 -400 -166 -400 -236 0 -14 9 -37 21 -52 31 -39
81 -36 144 10 66 48 174 98 256 118 82 20 252 21 336 1 267 -63 482 -280 548
-552 27 -112 17 -292 -22 -400 -42 -114 -86 -185 -173 -274 -86 -87 -184 -149
-297 -187 -69 -23 -94 -26 -218 -27 -129 0 -147 2 -230 29 -236 78 -424 281
-486 527 -32 125 -24 281 20 404 44 122 48 154 21 183 -31 32 -92 31 -119 -4
-46 -58 -90 -213 -99 -347 l-7 -97 -98 -44 c-128 -58 -270 -153 -392 -264
l-100 -90 -90 83 c-204 187 -400 295 -645 356 -81 20 -121 23 -270 23 -150 0
-187 -3 -259 -22 -173 -46 -319 -126 -446 -246 -53 -50 -65 -67 -65 -92 0 -47
34 -84 76 -84 28 0 49 13 122 76 250 216 581 272 918 153 176 -62 299 -139
469 -296 131 -120 150 -133 192 -133 40 0 74 24 198 139 60 57 143 125 185
152 70 47 219 124 225 117 1 -2 10 -28 20 -58 77 -239 242 -433 460 -542 208
-104 485 -117 710 -34 39 15 74 28 79 29 25 7 74 -214 82 -373 14 -280 -67
-563 -227 -790 -48 -67 -496 -534 -1009 -1051 l-175 -176 -128 -23 c-91 -16
-148 -21 -195 -17 -89 8 -717 124 -742 137 -48 26 -65 96 -32 136 31 39 50 42
162 28 336 -44 459 -54 527 -44 185 30 293 143 293 310 0 94 -34 173 -106 243
-83 82 -157 111 -409 156 -419 77 -449 76 -964 -14 -173 -30 -322 -55 -332
-55 -28 0 -311 300 -377 400 -158 239 -232 538 -204 818 17 169 38 243 134
473 25 59 -39 124 -100 103 -51 -18 -139 -230 -178 -429 -25 -124 -25 -395 -1
-520 64 -327 200 -570 461 -825 l57 -55 -153 -25 -153 -26 -7 26 c-11 38 -43
68 -85 79 -50 14 -635 14 -685 1 -20 -6 -46 -22 -58 -37 -20 -25 -20 -36 -20
-730 l0 -705 29 -29 29 -29 360 0 360 0 31 26 c17 14 34 38 38 53 l8 28 690
-189 c380 -103 728 -195 775 -204 125 -24 333 -15 459 20 158 44 1534 487
1572 506 56 29 132 104 163 161 59 107 44 255 -32 333 -91 95 -232 118 -439
72 -65 -14 -194 -41 -286 -60 l-168 -33 88 91 c49 50 256 263 462 473 205 210
398 413 428 450 137 171 231 380 280 619 13 67 18 134 17 269 0 192 -16 299
-67 448 l-23 69 91 92 c96 98 137 159 190 283 70 163 86 386 41 565 -80 316
-328 564 -644 644 -77 19 -119 24 -221 23 -69 0 -155 -7 -191 -15z m-1450
-3295 c259 -46 294 -57 356 -112 55 -48 74 -84 74 -138 0 -57 -31 -103 -87
-130 -62 -30 -147 -28 -443 10 -266 34 -302 32 -372 -23 -84 -63 -118 -180
-86 -290 16 -53 99 -137 153 -154 80 -25 703 -133 795 -139 90 -5 119 0 583
91 269 53 514 103 545 111 71 19 163 19 206 1 18 -7 43 -26 55 -42 49 -62 7
-170 -88 -222 -23 -13 -250 -91 -504 -172 -254 -81 -583 -187 -732 -235 -148
-47 -308 -95 -355 -106 -94 -21 -265 -25 -340 -9 -25 6 -372 99 -772 208
l-728 197 0 492 0 491 27 6 c16 3 190 33 388 65 198 33 453 75 566 95 381 67
417 67 759 5z m-1900 -659 l0 -610 -270 0 -270 0 0 610 0 610 270 0 270 0 0
-610z"/>
<path d="M4194 4559 c-35 -18 -44 -53 -44 -174 l0 -115 -125 0 c-112 0 -127
-2 -145 -20 -33 -33 -30 -85 6 -117 23 -21 35 -23 145 -23 l119 0 0 -119 c0
-110 2 -122 23 -145 32 -36 84 -39 117 -6 18 18 20 33 20 145 l0 125 115 0
c63 0 125 5 139 11 50 23 57 103 13 134 -16 11 -52 15 -144 15 l-123 0 0 124
c0 103 -3 127 -17 145 -21 25 -70 35 -99 20z"/>
<path d="M2721 3187 c-16 -8 -73 -99 -170 -269 -80 -142 -148 -257 -151 -257
-3 -1 -39 54 -80 121 -103 167 -113 178 -160 178 -22 0 -45 -7 -54 -16 -9 -8
-54 -80 -102 -159 l-86 -144 -230 -3 -230 -3 -24 -28 c-29 -34 -31 -66 -3
-101 l20 -26 274 0 273 0 24 28 c13 16 48 70 78 120 30 51 57 92 60 92 4 0 46
-63 94 -140 49 -77 97 -145 107 -150 25 -14 72 -12 91 3 9 6 80 125 158 262
79 138 144 251 145 253 1 1 48 -82 105 -185 273 -501 291 -531 321 -544 60
-24 77 -6 215 227 l127 214 308 0 308 0 20 26 c27 34 27 64 0 98 l-20 26 -354
0 -354 0 -19 -25 c-11 -14 -60 -93 -108 -175 -48 -83 -91 -147 -95 -142 -4 4
-93 165 -199 358 -212 388 -219 397 -289 361z"/>
</g>
</svg>
