<?xml version="1.0" standalone="no"?>
<!DOCTYPE svg PUBLIC "-//W3C//DTD SVG 20010904//EN"
 "http://www.w3.org/TR/2001/REC-SVG-20010904/DTD/svg10.dtd">
<svg version="1.0" xmlns="http://www.w3.org/2000/svg"
 width="512.000000pt" height="512.000000pt" viewBox="0 0 512.000000 512.000000"
 preserveAspectRatio="xMidYMid meet">
<metadata>
Created by potrace 1.16, written by Peter Selinger 2001-2019
</metadata>
<g transform="translate(0.000000,512.000000) scale(0.100000,-0.100000)"
fill="#254000" stroke="none">
<path d="M2695 5106 c-62 -20 -119 -52 -168 -94 -25 -22 -57 -42 -71 -46 -28
-7 -76 11 -117 44 -79 65 -221 34 -269 -59 -35 -70 -29 -103 86 -434 l107
-309 -385 -386 c-410 -412 -434 -439 -522 -574 -251 -385 -340 -864 -245
-1318 11 -56 29 -126 40 -157 10 -30 17 -59 14 -62 -2 -4 -35 -18 -72 -31
l-69 -23 -29 28 c-17 15 -52 38 -80 51 -49 23 -54 24 -375 24 -305 0 -328 -2
-370 -21 -72 -32 -106 -65 -139 -130 l-31 -62 0 -666 0 -666 24 -50 c29 -64
77 -112 141 -141 l50 -24 1432 0 c1376 0 1435 1 1546 20 265 45 521 160 727
327 97 78 1110 1066 1140 1112 48 72 63 131 58 235 -3 75 -9 103 -31 149 -83
169 -284 256 -463 199 l-60 -19 9 56 c15 96 2 452 -21 559 -53 240 -82 292
-164 292 -31 0 -46 -7 -70 -30 -27 -27 -29 -35 -25 -78 2 -26 16 -91 30 -144
40 -148 50 -251 44 -443 -4 -118 -11 -197 -26 -260 -41 -181 -2 -136 -441
-526 -353 -315 -482 -423 -530 -449 -13 -7 -15 4 -16 73 -1 50 -8 100 -18 127
-25 66 -80 142 -131 179 -68 49 -821 406 -929 440 -135 43 -249 61 -395 61
-153 0 -284 -20 -414 -64 l-98 -32 -24 80 c-135 448 -47 948 238 1341 28 39
233 253 456 478 l405 407 385 0 386 0 310 -309 c203 -203 320 -312 338 -316
37 -10 74 1 103 30 19 19 24 35 24 72 l0 47 -295 296 c-162 162 -295 300 -295
305 0 6 48 147 106 315 95 273 105 310 100 354 -7 59 -38 108 -86 135 -77 43
-150 36 -222 -20 -53 -42 -86 -46 -128 -15 -114 82 -141 98 -199 116 -73 23
-213 26 -276 6z m243 -220 c16 -8 49 -31 73 -52 69 -58 122 -78 209 -78 47 0
89 6 113 17 36 15 38 15 33 -1 -3 -9 -41 -118 -84 -242 l-79 -225 -374 -2
-374 -3 -82 237 c-45 130 -80 239 -78 241 2 3 19 -1 37 -9 18 -8 66 -13 108
-13 87 0 136 20 215 85 61 51 76 58 128 68 48 8 114 -2 155 -23z m1859 -3047
c34 -13 80 -55 99 -91 19 -36 17 -116 -4 -155 -9 -17 -208 -217 -442 -444
-634 -616 -640 -620 -715 -677 -95 -70 -279 -163 -397 -201 -207 -66 -182 -64
-1274 -68 l-991 -4 8 53 c4 29 8 312 8 628 l1 575 243 89 c133 48 283 97 332
107 166 35 373 23 545 -32 93 -29 827 -382 872 -418 85 -71 86 -179 4 -258
-78 -75 -63 -78 -624 101 -270 86 -502 156 -517 156 -90 0 -138 -104 -77 -169
24 -26 89 -50 522 -188 l495 -158 120 1 c195 3 382 63 541 176 34 24 292 248
574 498 281 250 528 463 548 472 43 20 88 23 129 7z m-3950 -312 l28 -27 0
-620 0 -620 -28 -27 -27 -28 -280 0 -280 0 -27 28 -28 27 0 619 0 619 24 26
c13 14 33 27 45 29 11 3 139 4 283 3 l263 -1 27 -28z"/>
<path d="M4127 3319 c-51 -30 -58 -119 -12 -165 37 -36 107 -34 146 5 65 65
20 171 -73 171 -24 0 -51 -5 -61 -11z"/>
<path d="M2762 3232 c-12 -9 -27 -34 -32 -54 -9 -30 -19 -40 -64 -62 -109 -54
-170 -152 -170 -276 0 -92 23 -150 86 -212 58 -59 122 -88 216 -100 109 -13
151 -44 151 -108 1 -59 -48 -101 -118 -102 -72 -1 -131 52 -131 117 0 16 -12
38 -29 56 -57 57 -158 31 -177 -46 -9 -38 12 -131 41 -181 29 -49 95 -107 149
-129 27 -12 38 -23 43 -45 15 -78 117 -109 175 -53 16 16 28 37 28 52 0 21 9
30 48 48 73 34 118 78 153 149 60 121 36 259 -60 352 -55 53 -121 83 -210 94
-91 11 -127 29 -148 73 -51 107 128 190 212 99 13 -14 27 -44 30 -67 10 -63
47 -97 106 -97 81 0 117 56 98 154 -19 102 -83 183 -181 229 -39 18 -48 27
-48 48 0 15 -12 36 -28 52 -34 33 -103 37 -140 9z"/>
</g>
</svg>
