<?xml version="1.0" standalone="no"?>
<!DOCTYPE svg PUBLIC "-//W3C//DTD SVG 20010904//EN"
 "http://www.w3.org/TR/2001/REC-SVG-20010904/DTD/svg10.dtd">
<svg version="1.0" xmlns="http://www.w3.org/2000/svg"
 width="512.000000pt" height="512.000000pt" viewBox="0 0 512.000000 512.000000"
 preserveAspectRatio="xMidYMid meet">
<metadata>
Created by potrace 1.16, written by Peter Selinger 2001-2019
</metadata>
<g transform="translate(0.000000,512.000000) scale(0.100000,-0.100000)"
fill="#613400" stroke="none">
<path d="M3594 5101 c-72 -33 -98 -76 -144 -244 -50 -179 -51 -228 -4 -304 75
-122 277 -144 370 -41 46 49 154 307 154 365 0 69 -20 116 -68 163 -78 75
-217 102 -308 61z m161 -155 c65 -27 65 -49 5 -191 -29 -69 -59 -130 -67 -137
-25 -20 -72 -13 -101 16 l-27 26 33 128 c18 70 40 137 48 150 17 26 58 29 109
8z"/>
<path d="M2323 4770 c-82 -17 -96 -28 -513 -410 -274 -252 -294 -273 -286
-313 9 -46 33 -67 78 -67 36 0 49 10 188 140 312 290 512 466 551 483 55 25
85 13 201 -75 381 -290 788 -689 1095 -1074 146 -183 163 -210 162 -253 -1
-53 -5 -60 -119 -188 -441 -495 -1186 -1261 -1566 -1609 l-99 -91 -34 14 -34
14 139 131 c369 347 1327 1328 1362 1395 19 36 14 59 -24 104 -63 75 -79 115
-79 199 0 94 20 134 104 212 84 78 83 91 -16 210 -97 116 -380 406 -533 546
-232 213 -247 219 -325 127 -61 -71 -138 -110 -215 -109 -75 0 -122 18 -186
70 -70 57 -97 58 -161 3 -242 -208 -1050 -1004 -1392 -1372 l-185 -197 -19 30
-19 30 108 117 c209 225 662 689 801 821 157 148 175 175 150 227 -18 37 -50
51 -91 41 -13 -3 -103 -83 -199 -176 l-176 -171 -279 -19 c-303 -21 -350 -30
-434 -88 -125 -86 -170 -176 -193 -387 -81 -740 -85 -1659 -10 -2475 9 -91 20
-187 25 -213 23 -111 103 -223 200 -280 88 -51 151 -58 825 -98 99 -6 474 -13
833 -16 624 -5 1007 2 1417 27 143 9 151 11 173 35 24 29 27 52 11 88 -19 41
-44 46 -195 37 -648 -41 -1714 -41 -2419 0 -292 17 -459 31 -496 41 -82 21
-166 104 -189 188 -14 52 -12 88 10 174 53 211 257 520 544 824 87 93 96 106
96 141 0 49 -27 76 -77 76 -33 0 -45 -9 -135 -103 -179 -187 -322 -370 -434
-555 l-51 -84 -7 106 c-34 537 -34 1052 0 1610 l7 113 34 -62 c168 -302 536
-709 922 -1017 271 -217 655 -440 894 -520 l97 -33 88 30 c587 197 1360 823
1753 1423 35 53 74 113 85 134 l21 38 7 -95 c34 -482 34 -1159 0 -1637 l-7
-94 -26 49 c-99 180 -317 458 -500 638 -52 50 -66 59 -97 59 -45 0 -74 -31
-74 -80 0 -30 14 -49 106 -147 377 -398 598 -799 545 -989 -30 -106 -122 -180
-247 -197 -51 -8 -74 -16 -86 -32 -26 -31 -23 -81 7 -109 22 -21 31 -22 97
-17 183 14 328 128 378 297 19 63 46 330 70 680 18 251 24 1005 11 1290 -13
285 -34 579 -57 775 -17 156 -46 227 -125 310 -67 71 -150 111 -258 127 l-81
11 -127 151 c-147 175 -444 480 -618 636 -176 158 -452 377 -510 404 -58 28
-132 38 -192 26z m473 -758 c129 -118 403 -396 471 -478 l42 -50 -33 -41
c-110 -140 -126 -350 -37 -494 l29 -46 -186 -199 c-212 -228 -901 -918 -1134
-1137 l-156 -148 -89 52 c-107 63 -211 132 -319 211 l-81 60 24 45 c27 55 32
163 9 217 -18 42 -80 113 -117 132 -86 44 -204 38 -277 -16 l-40 -29 -116 127
c-63 70 -147 167 -186 215 l-71 89 133 141 c437 464 796 823 1279 1279 l145
136 69 -34 c93 -46 176 -60 266 -45 78 13 160 48 210 91 19 16 37 29 40 30 4
0 60 -49 125 -108z m-2002 -634 c-16 -18 -85 -91 -154 -163 -69 -71 -169 -176
-222 -232 -53 -57 -98 -103 -101 -103 -9 0 -56 154 -63 206 -14 113 53 229
158 274 42 18 88 25 218 35 91 7 171 13 179 14 9 1 4 -11 -15 -31z m3196 -76
c107 -111 105 -235 -9 -467 -68 -137 -128 -231 -241 -376 -273 -351 -658 -699
-1040 -939 -108 -67 -384 -209 -440 -226 -15 -4 126 142 355 368 561 554 1243
1280 1313 1398 24 40 27 55 27 135 0 65 -5 99 -17 123 -24 47 -2 40 52 -16z"/>
<path d="M2585 3747 c-56 -27 -107 -79 -131 -135 -20 -48 -20 -156 1 -205 42
-101 142 -162 254 -155 141 9 236 100 248 238 9 99 -40 198 -124 246 -67 40
-178 45 -248 11z m158 -148 c13 -6 31 -23 40 -39 26 -44 21 -78 -17 -116 -45
-45 -95 -47 -137 -5 -80 81 10 208 114 160z"/>
<path d="M1840 3483 c-275 -46 -517 -226 -640 -478 -73 -148 -85 -203 -84
-375 0 -132 3 -152 28 -225 79 -231 247 -390 481 -456 109 -31 284 -31 400 0
306 82 547 322 629 626 39 144 29 336 -24 478 -31 83 -111 197 -183 262 -75
67 -214 137 -314 159 -66 15 -230 20 -293 9z m265 -168 c151 -38 277 -138 348
-272 91 -174 88 -363 -10 -563 -39 -78 -62 -109 -132 -180 -149 -148 -294
-212 -481 -214 -174 -1 -301 53 -417 176 -354 378 -3 1064 547 1067 47 1 113
-6 145 -14z"/>
<path d="M1563 3070 c-42 -17 -56 -80 -28 -124 14 -21 14 -27 -1 -62 -24 -56
-16 -160 15 -206 55 -79 143 -106 242 -73 30 10 98 40 151 66 103 50 128 52
153 16 44 -63 -26 -176 -143 -230 -69 -32 -92 -54 -92 -88 0 -41 9 -58 42 -75
26 -13 35 -13 81 0 29 9 69 27 89 41 36 24 39 25 67 10 40 -20 63 -19 95 6 30
24 35 75 12 112 -13 19 -12 29 6 82 64 190 -68 360 -253 325 -28 -6 -84 -27
-123 -49 -106 -58 -162 -77 -181 -61 -8 7 -15 26 -15 43 0 25 13 43 65 94 54
52 65 68 65 96 0 62 -64 97 -121 66 -16 -8 -29 -7 -54 5 -37 18 -41 18 -72 6z"/>
<path d="M4354 4600 c-52 -26 -249 -226 -269 -273 -19 -45 -19 -137 -1 -181
20 -48 75 -107 121 -127 49 -22 142 -25 190 -5 41 17 228 158 268 201 87 95
62 250 -59 357 -57 50 -177 64 -250 28z m158 -167 c40 -44 50 -68 37 -95 -6
-13 -57 -58 -115 -100 -117 -88 -148 -96 -183 -52 -38 49 -29 69 77 176 111
111 137 121 184 71z"/>
<path d="M4682 3771 c-161 -43 -202 -67 -239 -141 -17 -33 -23 -61 -23 -110 0
-80 22 -132 78 -182 65 -59 100 -64 289 -41 197 24 239 43 286 133 27 50 29
61 24 129 -8 102 -45 174 -110 215 -73 45 -130 44 -305 -3z m227 -140 c24 -24
37 -101 22 -129 -14 -26 -20 -28 -170 -47 -121 -16 -126 -16 -150 3 -32 23
-41 91 -16 112 17 15 236 78 273 79 12 1 31 -8 41 -18z"/>
</g>
</svg>
