<?xml version="1.0" standalone="no"?>
<!DOCTYPE svg PUBLIC "-//W3C//DTD SVG 20010904//EN"
 "http://www.w3.org/TR/2001/REC-SVG-20010904/DTD/svg10.dtd">
<svg version="1.0" xmlns="http://www.w3.org/2000/svg"
 width="512.000000pt" height="512.000000pt" viewBox="0 0 512.000000 512.000000"
 preserveAspectRatio="xMidYMid meet">
<metadata>
Created by potrace 1.16, written by Peter Selinger 2001-2019
</metadata>
<g transform="translate(0.000000,512.000000) scale(0.100000,-0.100000)"
fill="#002329" stroke="none">
<path d="M2844 4741 c-78 -48 -97 -105 -92 -288 3 -128 4 -136 27 -154 31 -25
85 -25 111 1 18 18 20 33 20 155 0 123 2 135 19 145 28 14 214 13 229 -2 9 -9
12 -73 12 -227 0 -149 5 -237 15 -284 66 -314 401 -514 707 -423 189 58 344
219 393 411 11 44 15 116 15 287 0 214 1 228 19 238 28 14 214 13 229 -2 9 -9
12 -100 12 -348 0 -372 5 -415 62 -503 60 -94 152 -152 271 -171 55 -8 69 -14
73 -31 3 -11 3 -83 2 -159 l-3 -139 -610 -294 c-335 -161 -615 -292 -622 -290
-6 1 -284 133 -617 292 l-606 290 2 159 3 160 69 13 c136 25 238 101 294 221
24 50 27 72 30 177 3 108 2 122 -15 138 -34 30 -76 32 -108 4 -28 -23 -29 -30
-35 -128 -7 -112 -19 -146 -67 -190 -42 -39 -84 -58 -156 -68 -36 -5 -73 -14
-83 -19 -30 -16 -72 -64 -83 -95 -8 -19 -11 -293 -11 -847 l0 -819 -191 -114
-191 -115 -46 21 c-44 20 -66 22 -309 25 l-263 3 0 639 0 638 258 4 c238 4
261 6 314 27 76 30 159 106 195 179 25 51 28 67 28 162 0 122 -16 166 -90 248
-65 72 -138 105 -246 110 l-87 4 -6 77 c-16 184 -134 301 -305 301 l-59 0 -4
93 c-4 105 -22 147 -78 184 -31 22 -43 23 -195 23 -152 0 -164 -1 -195 -22
-63 -43 -74 -68 -78 -177 l-4 -99 -77 -4 c-60 -3 -88 -11 -130 -33 -98 -54
-146 -136 -158 -271 l-6 -72 -88 -4 c-104 -4 -133 -22 -133 -83 0 -56 30 -79
96 -74 29 2 386 4 793 4 703 0 742 -1 775 -19 80 -42 120 -105 120 -186 0 -92
-66 -176 -156 -199 -29 -7 -277 -11 -762 -11 -811 0 -791 -2 -856 71 -46 50
-56 76 -56 142 0 74 -8 96 -42 113 -37 19 -82 10 -103 -19 -24 -34 -20 -163 7
-234 29 -80 121 -171 203 -203 56 -22 76 -24 318 -28 l257 -4 0 -638 0 -639
-262 -3 -263 -3 -65 -31 c-80 -38 -145 -101 -179 -174 -23 -48 -26 -68 -26
-160 0 -89 3 -112 23 -152 62 -126 177 -200 318 -206 l81 -4 7 -76 c15 -186
136 -302 313 -302 l53 0 0 -83 c0 -94 23 -155 73 -191 26 -19 43 -21 202 -21
161 0 176 2 202 21 49 36 66 79 71 171 l5 85 41 -40 c59 -57 130 -99 211 -125
l70 -22 1420 0 c1189 0 1427 2 1460 14 87 30 152 94 185 181 9 24 15 111 18
286 l4 251 67 5 c112 8 206 72 263 180 l23 43 0 1105 0 1105 -23 33 c-29 40
-89 72 -139 72 -88 1 -172 55 -209 134 -24 51 -24 53 -24 405 0 340 -1 357
-21 398 -14 29 -35 52 -63 68 -41 24 -50 25 -205 25 -178 0 -198 -5 -244 -60
-41 -48 -47 -90 -47 -328 0 -198 -2 -229 -21 -284 -49 -146 -166 -249 -316
-278 -203 -40 -418 108 -462 318 -6 30 -11 151 -11 276 0 214 -1 225 -23 267
-15 27 -38 52 -63 66 -36 21 -52 23 -204 23 -144 0 -169 -2 -196 -19z m-1654
-511 l0 -70 -115 0 -115 0 0 70 0 70 115 0 115 0 0 -70z m286 -246 c46 -22 73
-69 80 -143 l7 -61 -488 0 -488 0 6 60 c6 72 30 116 77 141 32 18 63 19 403
19 318 0 374 -2 403 -16z m1641 -1209 c327 -157 606 -285 621 -285 14 0 289
126 611 281 322 155 592 283 599 286 10 4 12 -153 10 -799 l-3 -805 -27 -35
c-29 -38 -72 -62 -130 -72 l-36 -7 -4 358 -3 358 -28 57 c-48 97 -128 148
-244 156 -45 3 -91 -1 -120 -9 -62 -17 -122 -77 -147 -147 -22 -64 -88 -156
-139 -195 -195 -148 -465 -124 -624 57 -24 27 -59 83 -79 125 -44 93 -65 117
-129 147 -45 21 -64 24 -186 24 -86 0 -152 -5 -180 -14 -24 -7 -108 -52 -186
-99 -78 -47 -151 -91 -162 -97 l-21 -11 0 506 c0 278 3 505 6 505 4 0 274
-128 601 -285z m-1927 -365 l0 -640 -115 0 -115 0 0 640 0 640 115 0 115 0 0
-640z m1990 -310 c11 -6 38 -50 62 -98 79 -162 229 -283 408 -328 103 -26 263
-16 362 23 155 61 269 168 339 319 21 45 45 84 54 88 30 11 95 6 125 -9 65
-34 65 -29 68 -562 l3 -483 -518 0 -518 0 -125 181 c-69 99 -133 185 -142 190
-30 16 -84 10 -103 -11 -37 -41 -26 -76 73 -218 51 -72 92 -134 92 -137 0 -3
-35 -5 -78 -5 l-79 0 -226 325 c-125 178 -227 327 -227 329 0 6 98 66 108 66
5 0 45 -53 90 -119 45 -65 89 -121 98 -125 55 -21 114 15 114 71 0 28 -17 59
-80 150 -44 63 -80 117 -80 120 0 3 11 29 25 57 15 31 28 79 32 119 l6 67 49
0 c27 0 58 -5 68 -10z m-296 -95 c-15 -32 -64 -64 -435 -286 -439 -262 -455
-270 -507 -233 -23 16 -13 22 465 309 453 272 488 292 491 269 2 -13 -4 -40
-14 -59z m-78 -670 l195 -280 -77 -3 c-70 -3 -78 -1 -93 20 -9 12 -89 126
-177 253 l-161 230 51 32 c28 18 54 31 59 30 4 -1 95 -128 203 -282z m-1041
266 c-6 -4 -82 -51 -170 -104 -218 -130 -282 -198 -336 -354 -26 -76 -33 -185
-16 -260 l14 -63 -275 0 c-260 0 -276 1 -312 21 -49 28 -71 67 -77 140 l-6 59
232 0 c218 0 232 1 251 20 26 26 26 80 1 111 l-19 24 -379 5 c-408 5 -408 5
-459 62 -42 46 -56 87 -52 153 6 91 60 159 144 185 38 11 1471 13 1459 1z
m730 -333 c77 -110 142 -205 143 -209 2 -5 -32 -9 -76 -9 l-79 0 -123 176
c-67 96 -121 176 -119 178 10 9 105 66 109 66 3 0 68 -91 145 -202z m-685 118
c48 -54 118 -79 211 -74 l78 3 91 -130 90 -130 -436 -3 c-241 -1 -439 -1 -441
2 -2 2 6 29 18 60 30 82 101 152 239 236 63 38 116 70 118 70 1 0 16 -15 32
-34z m2788 -585 c-6 -99 -22 -137 -72 -167 -30 -18 -79 -19 -1391 -22 -948 -2
-1379 1 -1424 8 -72 13 -144 46 -195 90 -40 36 -92 113 -101 153 l-7 27 1597
0 1598 0 -5 -89z m-3408 -211 l0 -70 -115 0 -115 0 0 70 0 70 115 0 115 0 0
-70z"/>
<path d="M3550 3418 c-40 -44 -17 -120 40 -133 l30 -7 0 -124 c0 -112 -2 -124
-18 -124 -38 0 -62 -29 -62 -74 0 -71 19 -81 162 -81 114 0 121 1 139 24 38
47 12 131 -41 131 -19 0 -20 7 -20 160 0 221 -16 250 -142 250 -56 0 -71 -4
-88 -22z"/>
</g>
</svg>
