<?xml version="1.0" standalone="no"?>
<!DOCTYPE svg PUBLIC "-//W3C//DTD SVG 20010904//EN"
 "http://www.w3.org/TR/2001/REC-SVG-20010904/DTD/svg10.dtd">
<svg version="1.0" xmlns="http://www.w3.org/2000/svg"
 width="512.000000pt" height="512.000000pt" viewBox="0 0 512.000000 512.000000"
 preserveAspectRatio="xMidYMid meet">
<metadata>
Created by potrace 1.16, written by Peter Selinger 2001-2019
</metadata>
<g transform="translate(0.000000,512.000000) scale(0.100000,-0.100000)"
fill="#5c0011" stroke="none">
<path d="M2594 5099 c-15 -17 -19 -40 -22 -125 -5 -122 2 -168 29 -195 26 -26
83 -25 109 1 18 18 20 33 20 160 0 127 -2 142 -20 160 -28 28 -90 27 -116 -1z"/>
<path d="M1943 5005 c-36 -25 -36 -61 2 -190 20 -66 41 -126 48 -133 8 -7 30
-15 49 -19 30 -4 41 -1 62 20 34 34 33 58 -9 193 -37 119 -55 144 -105 144
-14 0 -35 -7 -47 -15z"/>
<path d="M1336 4709 c-42 -33 -35 -71 34 -180 70 -110 90 -129 135 -129 39 0
75 37 75 78 0 26 -108 204 -142 235 -27 23 -69 22 -102 -4z"/>
<path d="M3660 4573 c-79 -25 -100 -64 -100 -179 l0 -90 -32 -12 c-30 -11 -33
-10 -98 52 -40 37 -79 65 -97 69 -32 6 -98 -8 -108 -23 -3 -5 -31 0 -63 11
-273 94 -593 113 -892 53 -107 -22 -298 -88 -393 -136 -507 -254 -849 -722
-938 -1283 -20 -123 -17 -429 5 -550 41 -224 139 -474 255 -650 160 -242 387
-449 628 -572 l113 -58 0 -138 c0 -136 0 -138 -25 -149 -13 -6 -37 -29 -52
-51 -27 -38 -28 -47 -31 -173 -3 -115 -1 -137 16 -170 38 -74 94 -103 199
-104 l61 0 4 -152 c3 -171 13 -202 78 -245 33 -23 35 -23 430 -23 395 0 397 0
431 23 19 12 44 42 57 67 20 40 22 59 22 187 l0 143 58 0 c74 0 124 14 163 47
50 42 59 77 59 218 0 145 -15 191 -76 227 l-34 20 0 136 0 137 113 58 c193 99
392 262 533 438 113 142 231 351 220 393 -13 53 -70 80 -115 55 -16 -9 -46
-52 -76 -107 -111 -206 -277 -397 -460 -527 -81 -58 -193 -125 -209 -125 -3 0
-6 85 -6 190 l0 189 38 10 c43 12 79 42 93 78 5 13 9 81 9 151 0 139 -8 165
-66 203 -25 16 -48 19 -159 19 -145 0 -180 -11 -210 -69 -17 -34 -22 -262 -6
-304 15 -38 51 -67 98 -79 l43 -10 0 -414 0 -414 -49 0 -50 0 -3 317 c-3 288
-5 321 -22 353 -10 19 -148 166 -307 325 l-289 291 21 20 c26 26 40 86 29 125
-10 35 -148 186 -193 212 -38 21 -88 22 -125 3 -15 -8 -66 -55 -114 -104 l-88
-89 0 -58 0 -58 88 -89 c48 -49 99 -96 114 -104 37 -19 87 -17 124 5 l31 19
255 -257 c140 -141 269 -273 286 -294 l32 -38 0 -289 0 -290 -75 0 -75 0 0
334 0 335 -26 20 c-45 36 -105 20 -124 -32 -6 -18 -10 -150 -10 -343 l0 -314
-105 0 -105 0 0 263 0 262 47 15 c34 11 54 25 70 49 21 31 23 45 23 168 0 208
-16 226 -210 231 -143 3 -177 -7 -217 -67 -21 -31 -23 -46 -23 -160 0 -103 3
-133 18 -160 20 -37 72 -71 109 -71 l23 0 0 -265 0 -265 -50 0 -50 0 0 171 c0
98 -4 179 -10 190 -6 10 -59 41 -117 69 -383 181 -692 531 -817 927 -177 563
-32 1165 380 1577 396 396 951 544 1492 400 l63 -17 -46 -47 c-84 -85 -81
-151 14 -253 53 -57 56 -64 47 -89 -10 -27 -12 -28 -90 -28 -91 0 -136 -17
-170 -63 -19 -26 -21 -42 -21 -206 0 -152 2 -181 18 -204 31 -48 62 -61 162
-65 89 -4 92 -5 102 -31 8 -23 4 -32 -48 -88 -66 -71 -84 -118 -69 -174 13
-45 241 -273 281 -281 58 -11 90 3 159 68 65 62 68 63 98 52 l32 -12 0 -91 c0
-71 4 -96 19 -118 37 -57 53 -62 217 -65 172 -4 217 4 259 48 28 30 30 36 33
130 l4 99 30 10 c17 6 33 11 36 11 3 0 2 -75 -1 -166 l-6 -166 24 -24 c29 -29
74 -31 105 -6 18 15 24 33 31 98 4 43 8 91 8 105 1 15 7 27 14 26 60 -2 71 5
184 116 63 61 121 124 129 139 8 15 14 48 14 73 0 44 -4 51 -66 116 -64 66
-66 69 -55 98 12 28 14 29 104 33 68 3 99 9 120 22 51 34 57 59 57 248 0 152
-2 177 -19 204 -28 46 -76 64 -169 64 -79 0 -80 0 -92 30 -12 30 -11 32 54 99
62 65 66 72 66 116 0 25 -6 58 -14 73 -8 15 -65 77 -128 138 -79 77 -122 112
-144 117 -56 11 -103 -10 -163 -74 -55 -58 -58 -59 -89 -48 l-32 11 0 85 c0
107 -16 144 -74 173 -37 17 -61 20 -192 19 -82 0 -156 -3 -164 -6z m272 -242
c4 -110 18 -133 108 -178 67 -33 126 -42 173 -24 13 5 48 32 78 59 l56 51 71
-72 72 -73 -45 -44 c-24 -24 -51 -58 -60 -76 -30 -63 -12 -158 42 -232 36 -48
71 -62 158 -62 l75 0 0 -110 0 -110 -75 0 c-111 0 -156 -29 -194 -128 -39 -99
-25 -165 54 -242 l45 -44 -72 -73 -72 -72 -52 49 c-29 28 -65 55 -79 60 -49
19 -107 11 -175 -23 -90 -45 -104 -68 -108 -178 l-4 -89 -103 0 -102 0 -5 83
c-3 58 -10 94 -24 118 -35 61 -174 114 -250 95 -14 -4 -52 -31 -83 -61 l-57
-54 -74 74 -74 74 56 59 c81 84 87 154 25 267 -37 66 -76 85 -173 85 l-84 0 0
110 0 110 84 0 c97 0 136 19 173 85 62 113 56 183 -25 267 l-56 59 74 74 74
74 56 -54 c82 -78 143 -85 257 -28 76 38 95 72 101 180 l5 83 102 0 103 0 4
-89z m-1674 -1954 l42 -43 -45 -44 -45 -44 -45 44 -45 44 42 43 c23 24 45 43
48 43 3 0 25 -19 48 -43z m1022 -377 l0 -70 -65 0 -65 0 0 70 0 70 65 0 65 0
0 -70z m-940 -300 l0 -70 -65 0 -65 0 0 70 0 70 65 0 65 0 0 -70z m898 -918
c9 -6 12 -34 10 -103 l-3 -94 -605 -3 c-333 -1 -615 0 -627 3 -22 5 -23 10
-23 99 0 66 4 96 13 99 21 9 1221 7 1235 -1z m-268 -382 c0 -20 -7 -20 -350
-20 -343 0 -350 0 -350 20 0 20 7 20 350 20 343 0 350 0 350 -20z m-2 -212
l-3 -33 -325 -3 c-179 -1 -335 0 -347 3 -18 4 -23 13 -23 35 l0 30 351 0 350
0 -3 -32z"/>
<path d="M3741 4089 c-194 -25 -378 -198 -426 -401 -62 -263 96 -538 354 -619
84 -26 215 -28 296 -4 168 48 312 192 360 360 20 69 23 201 5 273 -20 87 -90
120 -140 67 -25 -27 -27 -50 -12 -142 12 -73 -3 -155 -40 -226 -115 -215 -406
-254 -572 -77 -55 59 -81 109 -96 188 -24 120 18 242 114 330 93 85 223 116
345 83 91 -25 155 46 106 117 -29 41 -175 66 -294 51z"/>
<path d="M3740 3825 c-189 -60 -244 -323 -95 -454 54 -47 100 -64 175 -65 152
-2 268 112 268 264 0 65 -12 104 -54 162 -60 85 -191 126 -294 93z m125 -159
c23 -10 41 -27 52 -51 15 -32 16 -40 3 -77 -20 -56 -73 -85 -125 -68 -94 31
-101 156 -11 196 39 17 40 17 81 0z"/>
<path d="M850 4267 c-29 -15 -45 -54 -37 -89 4 -16 45 -58 103 -107 84 -70
101 -81 134 -81 30 0 43 6 59 26 43 55 28 83 -100 190 -92 76 -113 84 -159 61z"/>
<path d="M2151 3832 c-59 -31 -71 -69 -71 -212 0 -106 3 -130 20 -157 36 -60
59 -68 205 -68 147 0 173 8 205 61 17 27 20 50 20 163 0 148 -9 179 -63 211
-46 28 -265 29 -316 2z m219 -212 l0 -70 -65 0 -65 0 0 70 0 70 65 0 65 0 0
-70z"/>
<path d="M497 3688 c-43 -33 -40 -103 5 -132 37 -23 215 -96 236 -96 11 0 31
9 46 21 20 16 26 29 26 60 0 50 -12 60 -136 115 -102 45 -148 53 -177 32z"/>
<path d="M1782 3236 l-37 -34 -3 -140 c-4 -158 4 -188 61 -222 27 -17 51 -20
162 -20 111 0 135 3 162 20 57 34 65 64 61 222 l-3 140 -37 34 -38 34 -145 0
-145 0 -38 -34z m248 -191 l0 -65 -65 0 -65 0 0 65 0 65 65 0 65 0 0 -65z"/>
<path d="M2525 3100 c-36 -12 -55 -27 -78 -60 -24 -34 -25 -276 -2 -321 18
-34 69 -69 103 -69 l22 0 0 -229 c0 -133 4 -241 10 -258 19 -52 79 -68 124
-32 l26 20 0 250 0 249 26 0 c38 0 89 35 108 74 12 26 16 65 16 158 0 104 -3
128 -20 155 -35 57 -60 67 -189 70 -64 1 -129 -2 -146 -7z m195 -220 l0 -70
-65 0 -65 0 0 70 0 70 65 0 65 0 0 -70z"/>
<path d="M322 3027 c-27 -28 -29 -77 -4 -107 14 -17 37 -24 117 -35 145 -21
177 -20 203 8 27 28 29 77 4 107 -15 18 -36 24 -122 36 -149 19 -172 18 -198
-9z"/>
<path d="M458 2391 c-91 -18 -122 -36 -132 -77 -9 -33 18 -82 49 -90 25 -6
195 19 252 37 61 20 80 75 42 123 -18 22 -28 26 -72 25 -29 0 -91 -9 -139 -18z"/>
<path d="M684 1786 c-138 -67 -162 -96 -133 -159 14 -31 52 -49 87 -41 15 4
73 31 129 60 82 44 103 60 112 84 17 50 -7 92 -59 105 -19 4 -54 -8 -136 -49z"/>
<path d="M1029 1242 c-108 -106 -117 -127 -78 -176 16 -20 29 -26 60 -26 37 0
48 7 134 91 83 81 95 96 95 126 0 45 -37 83 -81 83 -26 0 -47 -16 -130 -98z"/>
</g>
</svg>
